Coordinates
version=1
nRows=17
nColumns=24
inDegrees=yes

Units are S.I. units (second, meters, Newtons, ...)
Angles are in degrees.

endheader
time	pelvis_tilt	pelvis_list	pelvis_rotation	pelvis_tx	pelvis_ty	pelvis_tz	hip_flexion_r	hip_adduction_r	hip_rotation_r	knee_angle_r	ankle_angle_r	subtalar_angle_r	mtp_angle_r	hip_flexion_l	hip_adduction_l	hip_rotation_l	knee_angle_l	ankle_angle_l	subtalar_angle_l	mtp_angle_l	lumbar_extension	lumbar_bending	lumbar_rotation
      4.14500000	    -10.27052734	      8.06728980	      1.10066505	     -0.20910737	     -0.02149895	      0.60708990	     26.47976296	    -12.76005332	     -3.36790647	    -63.93543033	     -3.82647401	     -1.80582512	     13.84909144	     18.35632147	     11.29322550	     -6.47299204	    -17.66707578	      3.17079003	      6.09912083	     12.76499282	      7.68613608	    -10.18255251	     -1.69348892
      4.15000000	    -10.26972021	      7.70292116	      1.46837946	     -0.20249802	     -0.02038543	      0.60671611	     27.11177808	    -12.51524979	     -3.72644467	    -63.23475904	     -3.65427667	     -1.71406221	     13.74049248	     17.55984936	     11.11032141	     -5.73124314	    -17.13280117	      3.28619327	      5.87191023	     12.49223340	      7.60315633	     -9.84909486	     -2.22643275
      4.15500000	    -10.28222169	      7.32333221	      1.81264374	     -0.19586361	     -0.01934067	      0.60638436	     27.73617943	    -12.24477168	     -4.07750799	    -62.45053916	     -3.52398718	     -1.73356584	     13.58207468	     16.79102256	     10.88201477	     -5.07943530	    -16.61206166	      3.39605609	      5.67843670	     12.25271700	      7.54932948	     -9.49356766	     -2.69471853
      4.16000000	    -10.27023598	      6.97279662	      2.18970719	     -0.18924729	     -0.01837446	      0.60604212	     28.31325341	    -12.03140497	     -4.47638375	    -61.61688276	     -3.44086327	     -1.91427283	     13.33800047	     15.99294290	     10.68225535	     -4.34630927	    -16.08287575	      3.51940510	      5.47214694	     11.98072724	      7.46262445	     -9.17751922	     -3.21598359
      4.16500000	    -10.20765418	      6.70133923	      2.55289401	     -0.18264424	     -0.01746992	      0.60568523	     28.83436036	    -11.91257318	     -4.84654159	    -60.75627448	     -3.31902177	     -2.06693904	     12.90777340	     15.11808427	     10.56580062	     -3.50222692	    -15.51475730	      3.61739735	      5.10973610	     11.47530379	      7.31950997	     -8.94113873	     -3.72212718
      4.17000000	    -10.21001856	      6.37736944	      2.92539674	     -0.17606242	     -0.01669148	      0.60539544	     29.39852259	    -11.73969252	     -5.26202143	    -59.81287079	     -3.29189606	     -2.46651721	     12.48290206	     14.36407009	     10.35058859	     -2.87358730	    -15.01699794	      3.75591569	      5.00535089	     11.22112798	      7.25314691	     -8.65681237	     -4.21787697
      4.17500000	    -10.23327056	      6.03115898	      3.23546709	     -0.16950259	     -0.01599811	      0.60518941	     29.97857693	    -11.50850293	     -5.61166106	    -58.79106018	     -3.30551595	     -2.93126321	     12.06257599	     13.65628394	     10.08083728	     -2.35521352	    -14.53734308	      3.89469231	      4.88155700	     11.02057324	      7.22095511	     -8.33508271	     -4.66461077
      4.18000000	    -10.17173099	      5.76530574	      3.61012909	     -0.16295929	     -0.01534249	      0.60492899	     30.43781918	    -11.41578786	     -6.03075808	    -57.75027368	     -3.26436600	     -3.39051631	     11.40358190	     12.82907164	      9.90713040	     -1.63225685	    -14.02144012	      4.02806666	      4.67890560	     10.66273559	      7.07603037	     -8.11319833	     -5.21089202
      4.18500000	    -10.15385295	      5.47822139	      3.94282076	     -0.15637234	     -0.01479733	      0.60467295	     30.92562572	    -11.30232615	     -6.45720398	    -56.64342823	     -3.23065249	     -3.84528176	     10.59834738	     12.06482262	      9.68958179	     -1.01326141	    -13.52391712	      4.16905164	      4.49967571	     10.30100916	      7.00550822	     -7.85059545	     -5.60487680
      4.19000000	    -10.15777368	      5.21091091	      4.23983814	     -0.14987128	     -0.01438015	      0.60454143	     31.44015606	    -11.17321186	     -6.80832054	    -55.48466645	     -3.25093196	     -4.44136632	      9.84547141	     11.35740314	      9.46125737	     -0.52184816	    -13.06049400	      4.32840739	      4.40552796	     10.05685433	      6.94652853	     -7.61227022	     -6.06927525
      4.19500000	    -10.14910458	      4.95018792	      4.53290698	     -0.14334317	     -0.01402810	      0.60441339	     31.91091438	    -11.06879380	     -7.19635929	    -54.26536614	     -3.25759631	     -5.01207826	      9.00584383	     10.63526313	      9.22899671	     -0.03362435	    -12.59104678	      4.48652174	      4.30695841	      9.80460597	      6.88182602	     -7.38058488	     -6.47880872
      4.20000000	    -10.17896441	      4.67414903	      4.78277904	     -0.13679218	     -0.01378380	      0.60433215	     32.40056479	    -10.93545380	     -7.56789569	    -52.96456428	     -3.29041648	     -5.59593235	      8.23423180	      9.97914333	      8.96314488	      0.32977501	    -12.15115736	      4.64420573	      4.21968948	      9.60894244	      6.87453754	     -7.12421752	     -6.81349583
      4.20500000	    -10.09683193	      4.48316809	      5.07815370	     -0.13028803	     -0.01356675	      0.60420280	     32.74988004	    -10.92718658	     -7.98188403	    -51.67940069	     -3.19878867	     -5.99400844	      6.98531707	      9.17121108	      8.78292521	      0.86985363	    -11.67085644	      4.82285485	      4.12841690	      9.28016890	      6.71788006	     -6.95435886	     -7.24034555
      4.21000000	    -10.09947411	      4.24512678	      5.29138047	     -0.12370496	     -0.01350651	      0.60417813	     33.17304765	    -10.83246550	     -8.35125612	    -50.32346466	     -3.09071543	     -6.26800644	      5.61059831	      8.48141986	      8.53241073	      1.24181660	    -11.22673754	      5.02913106	      4.04465198	      8.98675621	      6.68794340	     -6.72795718	     -7.52590055
      4.21500000	    -10.19476748	      4.04630827	      5.45671225	     -0.11719137	     -0.01366818	      0.60423686	     33.70350221	    -10.74828813	     -8.64067572	    -48.88228554	     -3.14349603	     -6.86144739	      5.05284782	      7.92305283	      8.30840950	      1.44539663	    -10.81397439	      5.24237114	      4.07134465	      8.93351483	      6.75376831	     -6.54199379	     -7.77126281
      4.22000000	    -10.08932310	      3.87671938	      5.70100841	     -0.11069411	     -0.01366407	      0.60425399	     33.95356203	    -10.74649315	     -9.08099082	    -47.41241667	     -3.06502892	     -7.18935673	      3.92338793	      7.12732270	      8.10189175	      1.79191012	    -10.37631863	      5.43082354	      4.08906142	      8.73279062	      6.57414138	     -6.39533847	     -8.14093214
      4.22500000	    -10.07656198	      3.68754214	      5.85598633	     -0.10411155	     -0.01388620	      0.60432382	     34.29845728	    -10.68251253	     -9.43767694	    -45.91080327	     -2.88117488	     -7.25132359	      2.61708807	      6.44533115	      7.87017811	      2.04330142	     -9.96621400	      5.67560881	      4.06007421	      8.50814096	      6.52890139	     -6.20663364	     -8.36698026
